<svg xmlns="http://www.w3.org/2000/svg" version="1.1" xmlns:xlink="http://www.w3.org/1999/xlink" xmlns:svgjs="http://svgjs.com/svgjs" width="1440" height="560" preserveAspectRatio="none" viewBox="0 0 1440 560"><g mask="url(&quot;#SvgjsMask1007&quot;)" fill="none"><rect width="1440" height="560" x="0" y="0" fill="rgba(241, 214, 238, 1)"></rect><path d="M -399.6148260810893,88 C -303.61,165.8 -111.61,476.8 80.38517391891071,477 C 272.39,477.2 368.39,91.6 560.3851739189107,89 C 752.39,86.4 848.39,450.4 1040.3851739189108,464 C 1232.39,477.6 1440.46,156.8 1520.3851739189108,157 C 1600.31,157.2 1456.08,403.4 1440,465" stroke="rgba(65, 52, 66, 0.53)" stroke-width="2"></path><path d="M -89.23876700786087,186 C 6.76,229 198.76,383.2 390.7612329921391,401 C 582.76,418.8 678.76,267.2 870.7612329921392,275 C 1062.76,282.8 1158.76,468.8 1350.7612329921392,440 C 1542.76,411.2 1812.91,158.4 1830.7612329921392,131 C 1848.61,103.6 1518.15,268.6 1440,303" stroke="rgba(65, 52, 66, 0.53)" stroke-width="2"></path><path d="M -504.336640864802,321 C -408.34,293.2 -216.34,184.8 -24.33664086480201,182 C 167.66,179.2 263.66,308.8 455.663359135198,307 C 647.66,305.2 743.66,158.8 935.663359135198,173 C 1127.66,187.2 1314.8,374.4 1415.6633591351979,378 C 1516.53,381.6 1435.13,228.4 1440,191" stroke="rgba(65, 52, 66, 0.53)" stroke-width="2"></path><path d="M -669.5326020268253,124 C -573.53,193 -381.53,463.8 -189.5326020268253,469 C 2.47,474.2 98.47,184.8 290.4673979731747,150 C 482.47,115.2 578.47,270.2 770.4673979731747,295 C 962.47,319.8 1116.56,252.8 1250.4673979731747,274 C 1384.37,295.2 1402.09,375.6 1440,401" stroke="rgba(65, 52, 66, 0.53)" stroke-width="2"></path></g><defs><mask id="SvgjsMask1007"><rect width="1440" height="560" fill="#ffffff"></rect></mask></defs></svg>