<svg xmlns="http://www.w3.org/2000/svg" version="1.1" xmlns:xlink="http://www.w3.org/1999/xlink" xmlns:svgjs="http://svgjs.com/svgjs" width="1440" height="560" preserveAspectRatio="none" viewBox="0 0 1440 560"><g mask="url(&quot;#SvgjsMask1008&quot;)" fill="none"><rect width="1440" height="560" x="0" y="0" fill="rgba(241, 214, 238, 1)"></rect><path d="M-175.31 484.56C-10.8 482.68 215.77 299.12 456.29 299.76 696.81 300.4 658.41 619.33 772.09 651.91" stroke="rgba(65, 52, 66, 0.5)" stroke-width="2"></path><path d="M-163.39 43.37C-25.01 45.83 123.67 197.63 360.4 222.57 597.13 247.51 519.43 539.47 622.3 581.24" stroke="rgba(65, 52, 66, 0.5)" stroke-width="2"></path><path d="M-130.72 145.34C1.16 146.2 161.07 253.3 382.23 268.54 603.38 283.78 542.2 552.9 638.7 586.1" stroke="rgba(65, 52, 66, 0.5)" stroke-width="2"></path><path d="M-150.02 153.87C19.99 156.17 158.26 350.31 499.52 355.47 840.78 360.63 977.79 570.63 1149.06 573.51" stroke="rgba(65, 52, 66, 0.5)" stroke-width="2"></path><path d="M-272.28 189.35C-118.59 195.45 55.49 437.52 286.45 446.95 517.4 456.38 488.54 576.52 565.81 579.85" stroke="rgba(65, 52, 66, 0.5)" stroke-width="2"></path></g><defs><mask id="SvgjsMask1008"><rect width="1440" height="560" fill="#ffffff"></rect></mask></defs></svg>